<?xml version="1.0" encoding="utf-8"?>
<!-- Generator: Adobe Illustrator 22.0.0, SVG Export Plug-In . SVG Version: 6.00 Build 0)  -->
<svg version="1.1" id="Layer_1" xmlns="http://www.w3.org/2000/svg" xmlns:xlink="http://www.w3.org/1999/xlink" x="0px" y="0px"
	 viewBox="0 0 64 64" style="enable-background:new 0 0 64 64;" xml:space="preserve">
<style type="text/css">
	.st0{fill:#FFFFFF;}
	.st1{fill:#444B54;}
	.st2{fill:#D53424;}
</style>
<path class="st0" d="M14.3,14.3c-9.8,9.8-9.8,25.6,0,35.4s25.6,9.8,35.4,0s9.8-25.6,0-35.4S24.1,4.6,14.3,14.3z"/>
<path class="st1" d="M32,58.5c-7.1,0-13.8-2.8-18.8-7.8c-10.4-10.3-10.4-27.1,0-37.5c5-5,11.6-7.8,18.8-7.8s13.8,2.8,18.8,7.8
	s7.8,11.6,7.8,18.8s-2.8,13.8-7.8,18.8S39.1,58.5,32,58.5z M32,8.5c-6.3,0-12.2,2.4-16.6,6.9c-9.1,9.1-9.1,24,0,33.2
	c4.4,4.4,10.3,6.8,16.6,6.8s12.2-2.5,16.6-6.9s6.9-10.3,6.9-16.6S53,19.8,48.6,15.4S38.3,8.5,32,8.5z"/>
<path class="st2" d="M26.7,38.8c-0.4,0-0.8-0.2-1-0.5c-0.6-0.6-0.6-1.5,0-2.1l10.6-10.6c0.6-0.6,1.5-0.6,2.1,0
	c0.6,0.6,0.6,1.5,0,2.1L27.8,38.3C27.5,38.7,27.1,38.8,26.7,38.8z"/>
<path class="st2" d="M37.3,38.8c-0.4,0-0.8-0.2-1-0.5L25.6,27.8c-0.6-0.6-0.6-1.5,0-2.1c0.6-0.6,1.5-0.6,2.1,0l10.6,10.6
	c0.6,0.6,0.6,1.5,0,2.1C38,38.7,37.7,38.8,37.3,38.8z"/>
</svg>
